<mxfile host="app.diagrams.net" modified="2024-06-12T01:59:15.860Z" agent="Mozilla/5.0 (Windows NT 10.0; Win64; x64) AppleWebKit/537.36 (KHTML, like Gecko) Chrome/125.0.0.0 Safari/537.36" version="24.5.3" etag="7BAzG2hUocxdZwcocl_k" type="github">
  <diagram name="第 1 页" id="uxeyC47pDu4yEuS4p9DA">
    <mxGraphModel>
      <root>
        <mxCell id="0" />
        <mxCell id="1" parent="0" />
      </root>
    </mxGraphModel>
  </diagram>
</mxfile>
